<svg xmlns="http://www.w3.org/2000/svg" width="1200" height="600" viewBox="0 0 1200 600"><defs><style>@keyframes pl{0%{opacity:.4}50%{opacity:1}}@keyframes scan{0%{transform:translateY(-40px)}}@keyframes flash{0%{fill:#0d0d12}50%{fill:var(--c,#22d3ee)}}.a0{animation:fi .5s .05s both}.a0,.a1,.a2{opacity:0}.a1{animation:fi .5s .2s both}.a2{animation:fi .5s .35s both}.a3{animation:fi .5s .5s both}.a3,.a4,.a5{opacity:0}.a4{animation:fi .5s .65s both}.a5{animation:fi .5s .8s both}.pl{animation:pl 1.5s infinite}.scan{animation:scan 2.6s linear infinite}.fc1{--c:#22d3ee;animation:flash 1.2s infinite}.fc2{--c:#10b981;animation:flash 1.4s .15s infinite}.fc3{--c:#a78bfa;animation:flash 1.1s .3s infinite}.fc4{--c:#22d3ee;animation:flash 1.3s .45s infinite}.fc5{--c:#10b981;animation:flash 1s .6s infinite}.fc6{--c:#a78bfa;animation:flash 1.5s .75s infinite}.fc7{--c:#22d3ee;animation:flash 1.25s .9s infinite}.fc8{--c:#f59e0b;animation:flash 1.35s 1.05s infinite}</style><pattern id="gp" width="22" height="22" patternUnits="userSpaceOnUse"><circle cx="11" cy="11" r=".55" fill="#1c1c27"/></pattern><radialGradient id="glow" cx="600" cy="300" r="600" gradientUnits="userSpaceOnUse"><stop offset="0" stop-color="#22d3ee" stop-opacity=".09"/><stop offset="1" stop-color="#22d3ee" stop-opacity="0"/></radialGradient><linearGradient id="hdr" x1="0" x2="0" y1="60" y2="120" gradientUnits="userSpaceOnUse"><stop offset="0" stop-color="#fff"/><stop offset="1" stop-color="#b0d8e8"/></linearGradient><linearGradient id="scanline" x1="0" x2="0" y1="0" y2="40" gradientUnits="userSpaceOnUse"><stop offset="0" stop-color="#22d3ee" stop-opacity="0"/><stop offset=".5" stop-color="#22d3ee" stop-opacity=".55"/><stop offset="1" stop-color="#22d3ee" stop-opacity="0"/></linearGradient><clipPath id="grid"><rect width="1120" height="270" x="40" y="170" rx="14"/></clipPath><g id="row"><rect width="34" height="22" x="0" y="0" class="fc1" rx="3"/><rect width="34" height="22" x="38" y="0" class="fc2" rx="3"/><rect width="34" height="22" x="76" y="0" class="fc3" rx="3"/><rect width="34" height="22" x="114" y="0" class="fc4" rx="3"/><rect width="34" height="22" x="152" y="0" class="fc5" rx="3"/><rect width="34" height="22" x="190" y="0" class="fc6" rx="3"/><rect width="34" height="22" x="228" y="0" class="fc7" rx="3"/><rect width="34" height="22" x="266" y="0" class="fc8" rx="3"/><rect width="34" height="22" x="304" y="0" class="fc1" rx="3"/><rect width="34" height="22" x="342" y="0" class="fc2" rx="3"/><rect width="34" height="22" x="380" y="0" class="fc3" rx="3"/><rect width="34" height="22" x="418" y="0" class="fc4" rx="3"/><rect width="34" height="22" x="456" y="0" class="fc5" rx="3"/><rect width="34" height="22" x="494" y="0" class="fc6" rx="3"/><rect width="34" height="22" x="532" y="0" class="fc7" rx="3"/><rect width="34" height="22" x="570" y="0" class="fc8" rx="3"/><rect width="34" height="22" x="608" y="0" class="fc1" rx="3"/><rect width="34" height="22" x="646" y="0" class="fc2" rx="3"/><rect width="34" height="22" x="684" y="0" class="fc3" rx="3"/><rect width="34" height="22" x="722" y="0" class="fc4" rx="3"/><rect width="34" height="22" x="760" y="0" class="fc5" rx="3"/><rect width="34" height="22" x="798" y="0" class="fc6" rx="3"/><rect width="34" height="22" x="836" y="0" class="fc7" rx="3"/><rect width="34" height="22" x="874" y="0" class="fc8" rx="3"/><rect width="34" height="22" x="912" y="0" class="fc1" rx="3"/><rect width="34" height="22" x="950" y="0" class="fc2" rx="3"/><rect width="34" height="22" x="988" y="0" class="fc3" rx="3"/><rect width="34" height="22" x="1026" y="0" class="fc4" rx="3"/><rect width="34" height="22" x="1064" y="0" class="fc5" rx="3"/></g></defs><rect width="1200" height="600" fill="#07070a" rx="14"/><rect width="1200" height="600" fill="url(#gp)" rx="14"/><rect width="1200" height="600" fill="url(#glow)" rx="14"/><g class="a0"><rect width="11" height="11" x="40" y="40" fill="#22d3ee" rx="2"/><text x="60" y="50" fill="#22d3ee" font-family="system-ui,-apple-system,sans-serif" font-size="9" font-weight="700" letter-spacing="2">VECTOR BACKTEST ENGINE</text></g><text x="40" y="92" fill="url(#hdr)" class="a1" font-family="system-ui,-apple-system,sans-serif" font-size="34" font-weight="700">Run thousands of strategies in parallel</text><text x="40" y="116" fill="#9898b0" class="a2" font-family="system-ui,-apple-system,sans-serif" font-size="13">Polars-powered vectorized signal evaluation — distributed across all your CPU cores. Sweep parameter grids, rank by key metrics, surface your winner.</text><g class="a3" transform="translate(40,134)"><rect width="240" height="26" fill="#0d0d12" stroke="#22d3ee" stroke-opacity=".4" rx="13"/><circle cx="14" cy="13" r="4" fill="#22d3ee" class="pl"/><text x="26" y="17" fill="#9898b0" font-family="system-ui,-apple-system,sans-serif" font-size="10">strategies evaluated</text><g fill="#22d3ee" font-family="ui-monospace,Menlo,monospace" font-size="11" font-weight="700" text-anchor="end"><text x="226" y="17"><animate attributeName="opacity" dur="2s" repeatCount="indefinite" values="1;0;0;0;1"/>1,284</text><text x="226" y="17" opacity="0"><animate attributeName="opacity" dur="2s" repeatCount="indefinite" values="0;1;0;0;0"/>1,847</text><text x="226" y="17" opacity="0"><animate attributeName="opacity" dur="2s" repeatCount="indefinite" values="0;0;1;0;0"/>2,463</text><text x="226" y="17" opacity="0"><animate attributeName="opacity" dur="2s" repeatCount="indefinite" values="0;0;0;1;0"/>3,124</text></g></g><g class="a3" transform="translate(300,134)"><rect width="170" height="26" fill="#0d0d12" stroke="#1c1c27" rx="13"/><text x="14" y="17" fill="#9898b0" font-family="system-ui,-apple-system,sans-serif" font-size="10">throughput</text><text x="156" y="17" fill="#10b981" font-family="ui-monospace,Menlo,monospace" font-size="11" font-weight="700" text-anchor="end">~1.2k/sec</text></g><g class="a3" transform="translate(490,134)"><rect width="180" height="26" fill="#0d0d12" stroke="#1c1c27" rx="13"/><text x="14" y="17" fill="#9898b0" font-family="system-ui,-apple-system,sans-serif" font-size="10">parallel workers</text><text x="166" y="17" fill="#a78bfa" font-family="ui-monospace,Menlo,monospace" font-size="11" font-weight="700" text-anchor="end">12 cores</text></g><g class="a3" transform="translate(690,134)"><rect width="160" height="26" fill="#0d0d12" stroke="#1c1c27" rx="13"/><text x="14" y="17" fill="#9898b0" font-family="system-ui,-apple-system,sans-serif" font-size="10">engine</text><text x="146" y="17" fill="#f59e0b" font-family="ui-monospace,Menlo,monospace" font-size="11" font-weight="700" text-anchor="end">Polars-native</text></g><g class="a4"><rect width="1120" height="270" x="40" y="170" fill="#0a0a0f" stroke="#1c1c27" rx="14"/><text x="56" y="188" fill="#22d3ee" font-family="system-ui,-apple-system,sans-serif" font-size="9" font-weight="700" letter-spacing="1.5">PARALLEL EXECUTION</text><text x="178" y="188" fill="#5a5a72" font-family="system-ui,-apple-system,sans-serif" font-size="9" letter-spacing="1">workload distributed across 12 cores · each row = one worker</text><g fill="#5a5a72" font-family="ui-monospace,Menlo,monospace" font-size="7.5" font-weight="700" text-anchor="middle"><text x="50" y="218">W1</text><text x="50" y="244">W2</text><text x="50" y="270">W3</text><text x="50" y="296">W4</text><text x="50" y="322">W5</text><text x="50" y="348">W6</text><text x="50" y="374">W7</text><text x="50" y="400">W8</text><text x="50" y="426">W9</text></g><g clip-path="url(#grid)"><use x="66" y="212" href="#row"/><use x="66" y="238" href="#row"/><use x="66" y="264" href="#row"/><use x="66" y="290" href="#row"/><use x="66" y="316" href="#row"/><use x="66" y="342" href="#row"/><use x="66" y="368" href="#row"/><use x="66" y="394" href="#row"/><use x="66" y="420" href="#row"/><rect width="1120" height="40" x="40" y="170" fill="url(#scanline)" class="scan"/></g></g><g class="a5" transform="translate(40,460)"><rect width="1120" height="110" fill="#0d0d12" stroke="#1c1c27" rx="10"/><text x="20" y="26" fill="#5a5a72" font-family="system-ui,-apple-system,sans-serif" font-size="10" font-weight="700" letter-spacing="1.5">TOP RANKED CANDIDATES</text><g transform="translate(20,40)"><rect width="354" height="58" fill="#0a0a0f" stroke="#22d3ee" stroke-opacity=".5" rx="8"/><rect width="4" height="58" x="0" y="0" fill="#22d3ee" rx="2"/><text x="20" y="20" fill="#22d3ee" font-family="system-ui,-apple-system,sans-serif" font-size="9" font-weight="700" letter-spacing="1.5">#1 · WINNER</text><text x="20" y="40" fill="#e8e8f0" font-family="system-ui,-apple-system,sans-serif" font-size="13" font-weight="600">RSI(14) + EMA(50,200) crossover</text><text x="20" y="52" fill="#9898b0" font-family="ui-monospace,Menlo,monospace" font-size="9.5">Sharpe 1.84 · CAGR +34.2% · MaxDD -12.6%</text></g><g transform="translate(384,40)"><rect width="354" height="58" fill="#0a0a0f" stroke="#1c1c27" rx="8"/><rect width="4" height="58" x="0" y="0" fill="#10b981" rx="2"/><text x="20" y="20" fill="#10b981" font-family="system-ui,-apple-system,sans-serif" font-size="9" font-weight="700" letter-spacing="1.5">#2</text><text x="20" y="40" fill="#d8d8e8" font-family="system-ui,-apple-system,sans-serif" font-size="13" font-weight="500">Mean Reversion · Bollinger Bands</text><text x="20" y="52" fill="#9898b0" font-family="ui-monospace,Menlo,monospace" font-size="9.5">Sharpe 1.62 · CAGR +28.7% · MaxDD -15.2%</text></g><g transform="translate(748,40)"><rect width="354" height="58" fill="#0a0a0f" stroke="#1c1c27" rx="8"/><rect width="4" height="58" x="0" y="0" fill="#a78bfa" rx="2"/><text x="20" y="20" fill="#a78bfa" font-family="system-ui,-apple-system,sans-serif" font-size="9" font-weight="700" letter-spacing="1.5">#3</text><text x="20" y="40" fill="#d8d8e8" font-family="system-ui,-apple-system,sans-serif" font-size="13" font-weight="500">Momentum Breakout · 20d high</text><text x="20" y="52" fill="#9898b0" font-family="ui-monospace,Menlo,monospace" font-size="9.5">Sharpe 1.41 · CAGR +24.1% · MaxDD -18.9%</text></g></g></svg>